<svg xmlns="http://www.w3.org/2000/svg" xml:space="preserve" viewBox="0 0 123.65 73.06">
  <path style="fill:#43afaa;fill-opacity:1;fill-rule:nonzero;stroke:none" d="m169.383 341.547 121.855 121.859-84.578 84.578L.227 341.547l75.214-75.445 153.184 15.976-59.242 59.469" transform="matrix(.13333 0 0 -.13333 0 73.067)"/>
  <path style="fill:#bcbdbd;fill-opacity:1;fill-rule:nonzero;stroke:none" d="M413.512 341.547 328.977 426l-84.454-84.453 51.032-51.227 145.918 23.168-27.961 28.059" transform="matrix(.13333 0 0 -.13333 0 73.067)"/>
  <path style="fill:#43afaa;fill-opacity:1;fill-rule:nonzero;stroke:none" d="m683.066 341.547-84.398 84.398-84.398-84.398-41.231-40.957 106.66-62.438 103.367 103.395" transform="matrix(.13333 0 0 -.13333 0 73.067)"/>
  <path style="fill:#bcbdbd;fill-opacity:1;fill-rule:nonzero;stroke:none" d="M927.422 341.547 720.988 547.984l-84.582-84.578L758.27 341.547 585.875 169.16l139.406-29.758 202.141 202.145" transform="matrix(.13333 0 0 -.13333 0 73.067)"/>
  <path style="fill:#d3d4d3;fill-opacity:1;fill-rule:nonzero;stroke:none" d="m585.875 0 341.547 341.547H758.27L585.875 169.16 413.406 341.547H244.328L585.875 0" transform="matrix(.13333 0 0 -.13333 0 73.067)"/>
  <path style="fill:#4cb6ad;fill-opacity:1;fill-rule:nonzero;stroke:none" d="M169.156 341.547H0L341.551 0l341.543 341.547H514.016L341.551 169.16 169.156 341.547" transform="matrix(.13333 0 0 -.13333 0 73.067)"/>
</svg>
